HIERARCHY
ROOT Hips
{
  OFFSET 155.048 98.1286 3.93448
  CHANNELS 6 Xposition Yposition Zposition Zrotation Xrotation Yrotation
  JOINT RightUpLeg
  {
    OFFSET -8.9458 -8.66707 0.101652
    CHANNELS 3 Zrotation Xrotation Yrotation
    JOINT RightLeg
    {
      OFFSET 0 -44.4227 1.3727
      CHANNELS 3 Zrotation Xrotation Yrotation
      JOINT RightFoot
      {
        OFFSET 0.253549 -42.0924 -1.46059
        CHANNELS 3 Zrotation Xrotation Yrotation
        JOINT RightToes
        {
          OFFSET 0.04 -4.41509 8.4991
          CHANNELS 3 Zrotation Xrotation Yrotation
          End Site
          {
            OFFSET -0.08 -0.137448 9.77979
          }
        }
      }
    }
  }
  JOINT Spine
  {
    OFFSET 0 11.8905 0
    CHANNELS 3 Zrotation Xrotation Yrotation
    JOINT Spine1
    {
      OFFSET 0 25.6574 0.127663
      CHANNELS 3 Zrotation Xrotation Yrotation
      JOINT Head
      {
        OFFSET 0 8.73416 0.011341
        CHANNELS 3 Zrotation Xrotation Yrotation
        End Site
        {
          OFFSET -0.29 12.7742 2.51395
        }
      }
      JOINT LeftShoulder1
      {
        OFFSET 8.99 -0.362252 -0.22
        CHANNELS 3 Zrotation Xrotation Yrotation
        JOINT LeftArm
        {
          OFFSET 10.2827 -0.00337999 0.322123
          CHANNELS 3 Zrotation Xrotation Yrotation
          JOINT LeftForeArm
          {
            OFFSET 26.2597 0.099144 -1.42434
            CHANNELS 3 Zrotation Xrotation Yrotation
            JOINT LeftHand
            {
              OFFSET 22.0902 0.085362 1.02216
              CHANNELS 3 Zrotation Xrotation Yrotation
              End Site
              {
                OFFSET 13.419 -0.6 1.50291
              }
            }
          }
        }
      }
      JOINT RightShoulder
      {
        OFFSET -8.99 -0.362252 -0.22
        CHANNELS 3 Zrotation Xrotation Yrotation
        JOINT RightArm
        {
          OFFSET -10.2827 -0.00338 0.322123
          CHANNELS 3 Zrotation Xrotation Yrotation
          JOINT RightForeArm
          {
            OFFSET -26.364 0.099144 -1.42434
            CHANNELS 3 Zrotation Xrotation Yrotation
            JOINT RightHand
            {
              OFFSET -22.0324 0.085362 1.02216
              CHANNELS 3 Zrotation Xrotation Yrotation
              End Site
              {
                OFFSET -13.3284 -0.6 1.50291
              }
            }
          }
        }
      }
    }
  }
  JOINT LeftUpLeg
  {
    OFFSET 8.9458 -8.66707 0.101652
    CHANNELS 3 Zrotation Xrotation Yrotation
    JOINT LeftLeg
    {
      OFFSET 0 -44.4227 1.3727
      CHANNELS 3 Zrotation Xrotation Yrotation
      JOINT LeftFoot
      {
        OFFSET -0.253549 -42.0924 -1.46059
        CHANNELS 3 Zrotation Xrotation Yrotation
        JOINT LeftToes
        {
          OFFSET -0.04 -4.41509 8.4991
          CHANNELS 3 Zrotation Xrotation Yrotation
          End Site
          {
            OFFSET 0.08 -0.047448 9.77979
          }
        }
      }
    }
  }
}
MOTION
Frames:	12
Frame Time:	0.0333333
10.1989 101.963 -4.29627 1.495 -0.475175 -96.0675 1.06299 -4.4395 -4.58839 -1.29222 10.3144 -5.77139 2.1615 -7.31093 -0.180975 0.0462048 0.000530889 0.662642 4.09787 -8.61079 1.04774 -4.50559 10.1138 1.87554 1.51242 2.5842 -2.99722 -8.63124 0.122278 2.6842 12.9457 -60.6895 4.60666 -8.99543 19.1137 9.08725 12.6812 9.76238 4.21267 12.2926 0.823748 -0.377562 -21.3045 -47.6301 -6.80028 11.9467 42.8908 -9.87198 4.85802 10.1801 0.574516 -1.61477 -3.23539 3.09833 1.79349 9.57294 9.89312 -3.13583 -7.57762 0.025929 -1.3449e-009 8.75165e-006 -1.48423e-008 
10.1916 101.963 -4.28101 1.49919 -0.460068 -96.0862 1.06971 -4.42769 -4.58213 -1.28932 10.2887 -5.75271 2.16272 -7.30201 -0.180972 0.0462048 0.000530889 0.662642 4.06076 -8.60168 1.05796 -4.40299 10.0931 1.8596 1.47777 2.60794 -2.90307 -8.68065 0.122277 2.68963 12.9516 -60.671 4.63174 -9.03705 19.2956 9.09335 12.6031 9.74541 4.03514 12.2787 0.832228 -0.331842 -21.4336 -47.5406 -6.91377 11.9384 42.6816 -9.82894 4.8833 10.1803 0.503412 -1.60864 -3.23176 3.11386 1.7931 9.56389 9.90901 -3.10073 -7.56582 0.0259283 -1.3449e-009 8.75165e-006 -1.48423e-008 
10.1759 101.963 -4.25564 1.52906 -0.435726 -96.1028 1.08567 -4.43024 -4.56478 -1.29035 10.2467 -5.75044 2.17131 -7.28011 -0.180963 0.0462048 0.000530889 0.662642 4.04388 -8.62335 1.06255 -4.32178 10.0784 1.84084 1.46771 2.63654 -2.76829 -8.70731 0.122274 2.71994 12.8855 -60.6735 4.58863 -9.08459 19.5932 9.06122 12.586 9.71141 3.69374 12.3335 0.848541 -0.256064 -21.6762 -47.4197 -7.12809 11.9313 42.4825 -9.77914 4.79368 10.1806 0.534532 -1.59792 -3.26081 3.12558 1.79303 9.57568 9.92906 -3.07043 -7.5597 0.0259279 -1.3449e-009 8.75165e-006 -1.48423e-008 
10.1569 101.963 -4.23057 1.56615 -0.425079 -96.0973 1.09676 -4.45331 -4.54136 -1.31208 10.233 -5.77948 2.19786 -7.27132 -0.180959 0.0462048 0.000530889 0.662642 4.05155 -8.68474 1.05386 -4.31926 10.1157 1.83043 1.51576 2.62968 -2.72877 -8.6921 0.123163 2.75006 12.7886 -60.7171 4.47686 -9.09333 19.8066 9.04126 12.6531 9.68551 3.4458 12.4365 0.855948 -0.233619 -21.8462 -47.379 -7.29498 11.8983 42.4402 -9.71866 4.70391 10.1844 0.712832 -1.60377 -3.30386 3.11047 1.79822 9.60241 9.94625 -3.06421 -7.56487 0.0259282 -1.3449e-009 8.75165e-006 -1.48423e-008 
10.1361 101.963 -4.20723 1.58102 -0.434256 -96.0856 1.09536 -4.46688 -4.51637 -1.35927 10.2473 -5.80926 2.24804 -7.2863 -0.180965 0.0462048 0.000530889 0.662642 4.02008 -8.75759 1.04294 -4.27635 10.2044 1.81416 1.5436 2.59091 -2.80727 -8.7193 0.126869 2.73846 12.791 -60.7641 4.42617 -9.07151 19.8539 9.07955 12.6707 9.68109 3.40493 12.4695 0.846804 -0.285394 -21.8431 -47.3997 -7.32701 11.8465 42.3932 -9.64883 4.7562 10.1945 0.862949 -1.63376 -3.31355 3.07914 1.80387 9.60868 9.9696 -3.04683 -7.56742 0.0259284 -1.3449e-009 8.75165e-006 -1.48423e-008 
10.1134 101.963 -4.18083 1.58719 -0.448994 -96.1013 1.08718 -4.46975 -4.49254 -1.41123 10.258 -5.80445 2.30028 -7.30154 -0.180971 0.0462048 0.000530889 0.662642 3.94964 -8.83382 1.03799 -4.14157 10.3022 1.78272 1.49446 2.55619 -2.88442 -8.82144 0.130101 2.70256 12.8904 -60.7843 4.48493 -9.05438 19.8377 9.08531 12.6031 9.68934 3.47568 12.4188 0.834717 -0.339868 -21.7539 -47.4162 -7.26227 11.8148 42.2162 -9.6171 4.78846 10.1939 0.814391 -1.66695 -3.29631 3.06065 1.79708 9.58283 10.004 -3.00197 -7.56254 0.0259281 -1.3449e-009 8.75165e-006 -1.48423e-008 
10.0907 101.963 -4.14706 1.61906 -0.456859 -96.1529 1.07614 -4.49873 -4.47486 -1.44273 10.2614 -5.76185 2.3165 -7.2973 -0.18097 0.0462048 0.000530889 0.662642 3.93216 -8.93129 1.03604 -4.05407 10.3841 1.75852 1.4382 2.5429 -2.85508 -8.8951 0.129066 2.71356 12.887 -60.7929 4.49679 -9.0564 19.8646 9.03975 12.5713 9.69809 3.5579 12.3999 0.832846 -0.343846 -21.6901 -47.464 -7.17848 11.794 42.0722 -9.64247 4.64592 10.1759 0.601996 -1.68408 -3.29876 3.06471 1.77143 9.54698 10.0449 -2.95128 -7.55781 0.0259278 -1.3449e-009 8.75165e-006 -1.48423e-008 
10.0705 101.963 -4.10825 1.6676 -0.460781 -96.2111 1.05601 -4.55488 -4.47155 -1.4502 10.2778 -5.70391 2.30152 -7.28851 -0.180966 0.0462048 0.000530889 0.662642 4.01397 -9.03957 1.03245 -4.13207 10.4601 1.76566 1.45341 2.53664 -2.7622 -8.83955 0.115091 2.79704 12.6454 -60.8044 4.3185 -9.06243 19.8507 8.98216 12.6193 9.70801 3.66443 12.4608 0.835305 -0.332612 -21.6308 -47.6082 -7.10831 11.7404 42.1929 -9.67231 4.56284 10.1638 0.440147 -1.69547 -3.3248 3.07189 1.74151 9.52283 10.0886 -2.90468 -7.55454 0.0259276 -1.3449e-009 8.75165e-006 -1.48423e-008 
10.0519 101.963 -4.07115 1.68815 -0.466737 -96.2457 1.02234 -4.58548 -4.48923 -1.44471 10.3052 -5.64665 2.30256 -7.29856 -0.18097 0.0462048 0.000530889 0.662642 4.10927 -9.11387 1.02564 -4.26525 10.5416 1.78478 1.49371 2.5123 -2.69982 -8.73244 0.100889 2.88045 12.3575 -60.8041 4.10159 -9.04524 19.659 8.8899 12.6059 9.72085 3.79079 12.5203 0.838333 -0.336657 -21.5564 -47.7683 -7.09317 11.6547 42.4796 -9.63746 4.7713 10.1768 0.488465 -1.72254 -3.32942 3.06036 1.73175 9.5103 10.1366 -2.85223 -7.55202 0.0259275 -1.3449e-009 8.75165e-006 -1.48423e-008 
10.0338 101.963 -4.03899 1.67044 -0.472778 -96.2609 0.981827 -4.56884 -4.52517 -1.43149 10.326 -5.5898 2.32802 -7.32365 -0.18098 0.0462048 0.000530889 0.662642 4.12365 -9.14248 1.01456 -4.28351 10.6287 1.77927 1.49574 2.4395 -2.6449 -8.74658 0.102269 2.87253 12.3572 -60.8029 4.15058 -8.98447 19.3923 8.70238 12.4618 9.72802 3.84287 12.5448 0.84461 -0.307723 -21.5844 -47.7936 -7.21405 11.5661 42.5419 -9.51995 4.98145 10.1961 0.658256 -1.76527 -3.29632 3.02953 1.74779 9.49934 10.1888 -2.80835 -7.55066 0.0259274 -1.3449e-009 8.75165e-006 -1.48423e-008 
10.0182 101.963 -4.00934 1.65422 -0.474542 -96.2804 0.946865 -4.55021 -4.56286 -1.41186 10.3375 -5.53484 2.32733 -7.34149 -0.180988 0.0462048 0.000530889 0.662642 4.09579 -9.17159 1.00238 -4.22547 10.7278 1.7564 1.5241 2.29034 -2.47308 -8.90726 0.119012 2.77567 12.6551 -60.8508 4.48123 -8.88155 19.292 8.45551 12.3631 9.72319 3.78205 12.608 0.865084 -0.213135 -21.7739 -47.6937 -7.46368 11.4776 42.1826 -9.38267 4.81479 10.1909 0.727593 -1.80291 -3.26311 2.99856 1.7684 9.48392 10.2373 -2.80087 -7.551 0.0259274 -1.3449e-009 8.75165e-006 -1.48423e-008 
10.0069 101.963 -3.98092 1.6713 -0.470465 -96.3109 0.926823 -4.56446 -4.5815 -1.39293 10.3353 -5.49346 2.28093 -7.34049 -0.180987 0.0462048 0.000530889 0.662642 4.12113 -9.23455 0.99599 -4.24714 10.8357 1.75298 1.66983 2.08191 -2.09582 -9.05508 0.134859 2.68522 12.8751 -60.9542 4.75474 -8.77164 19.3851 8.27735 12.4736 9.7152 3.70565 12.7219 0.887241 -0.118293 -21.939 -47.6113 -7.68092 11.4029 41.65 -9.34259 4.47412 10.1683 0.629169 -1.81801 -3.26398 2.98869 1.77113 9.46548 10.2704 -2.81645 -7.55563 0.0259277 -1.3449e-009 8.75165e-006 -1.48423e-008 
